<svg width="192" height="192" viewBox="0 0 192 192" fill="none" xmlns="http://www.w3.org/2000/svg">
  <rect width="192" height="192" rx="36" fill="#14B8A6"/>
  <circle cx="96" cy="96" r="56" fill="#0D9488"/>
  <path d="M74 90C74 78.954 82.954 70 94 70H120V84H96C92.686 84 90 86.686 90 90C90 93.314 92.686 96 96 96H110C121.046 96 130 104.954 130 116C130 127.046 121.046 136 110 136H72V122H108C111.314 122 114 119.314 114 116C114 112.686 111.314 110 108 110H94C82.954 110 74 101.046 74 90Z" fill="white"/>
</svg>
