<svg width="512" height="512" viewBox="0 0 512 512" fill="none" xmlns="http://www.w3.org/2000/svg">
  <rect width="512" height="512" fill="#14B8A6"/>
  <rect x="48" y="48" width="416" height="416" rx="96" fill="#0D9488"/>
  <path d="M198 240C198 211.49 221.49 188 250 188H320V224H258C250.268 224 244 230.268 244 238C244 245.732 250.268 252 258 252H292C320.51 252 344 275.49 344 304C344 332.51 320.51 356 292 356H192V320H284C291.732 320 298 313.732 298 306C298 298.268 291.732 292 284 292H250C221.49 292 198 268.51 198 240Z" fill="white"/>
</svg>
