<svg width="512" height="512" viewBox="0 0 512 512" fill="none" xmlns="http://www.w3.org/2000/svg">
  <!-- Background (full bleed for maskable icon) -->
  <rect width="512" height="512" fill="#14B8A6"/>
  
  <!-- Letter S icon -->
  <path d="M256 120C188.3 120 133 175.3 133 243c0 67.7 55.3 123 123 123h123c32.3 0 59-26.7 59-59s-26.7-59-59-59h-80c-5.9 0-10.7 4.8-10.7 10.7s4.8 10.7 10.7 10.7h80c23.5 0 42.7 19.2 42.7 42.7s-19.2 42.7-42.7 42.7H256C211.5 403 177 368.5 177 328s34.5-75 75-75h95c32.3 0 59-26.7 59-59s-26.7-59-59-59H256z" fill="white"/>
</svg>
